<?xml version="1.0" standalone="no"?>
<!DOCTYPE svg PUBLIC "-//W3C//DTD SVG 20010904//EN"
 "http://www.w3.org/TR/2001/REC-SVG-20010904/DTD/svg10.dtd">
<svg version="1.0" xmlns="http://www.w3.org/2000/svg"
 width="225.000000pt" height="225.000000pt" viewBox="0 0 225.000000 225.000000"
 preserveAspectRatio="xMidYMid meet">
<metadata>
Created by potrace 1.14, written by Peter Selinger 2001-2017
</metadata>
<g transform="translate(0.000000,225.000000) scale(0.100000,-0.100000)"
fill="#000000" stroke="none">
<path d="M0 1125 l0 -1125 1125 0 1125 0 0 1125 0 1125 -1125 0 -1125 0 0
-1125z m811 614 c40 -15 80 -42 116 -76 13 -13 28 -23 34 -23 5 0 14 -12 19
-26 6 -14 14 -23 19 -20 5 3 8 -2 7 -11 0 -10 4 -18 11 -18 6 0 15 -4 20 -9 5
-5 3 -6 -4 -2 -20 11 -15 -9 6 -28 11 -10 23 -31 26 -48 5 -20 11 -28 21 -24
9 3 12 1 9 -4 -8 -14 16 -80 30 -80 6 0 21 27 34 60 13 33 30 65 38 71 7 6 13
17 13 24 0 7 7 18 15 25 9 7 14 19 11 27 -3 8 -2 12 2 9 5 -3 26 16 47 41 46
54 133 112 178 120 l32 5 -3 -138 c-2 -116 0 -135 11 -120 12 16 14 16 25 -8
25 -53 31 -72 38 -115 4 -29 9 -39 14 -30 5 7 6 -5 3 -29 -4 -30 -2 -42 7 -42
7 0 10 6 7 14 -4 10 0 12 14 9 13 -4 19 -14 19 -34 0 -15 3 -30 8 -32 4 -3 5
-44 2 -91 -3 -54 -1 -86 5 -86 6 0 5 -4 -1 -8 -15 -9 -44 -79 -36 -86 10 -10
20 -6 24 9 2 10 7 6 15 -11 10 -22 10 -25 -3 -20 -9 3 -14 -1 -14 -12 0 -9
-11 -40 -24 -69 -13 -28 -22 -54 -19 -57 8 -8 -18 -37 -27 -31 -4 3 -14 -3
-21 -12 -12 -15 -12 -16 3 -10 10 3 20 2 23 -3 3 -4 -5 -7 -18 -6 -25 3 -67
-25 -67 -44 0 -6 -6 -10 -12 -9 -34 4 -59 -2 -52 -13 4 -7 3 -8 -5 -4 -14 9
-71 -30 -71 -50 0 -8 5 -14 11 -14 5 0 7 -5 4 -11 -5 -6 -11 -4 -19 6 -7 10
-18 14 -30 9 -14 -5 -15 -9 -4 -15 10 -7 9 -9 -4 -9 -10 0 -22 -9 -28 -20 -6
-11 -8 -20 -4 -20 4 0 -1 -9 -11 -20 -10 -11 -21 -18 -23 -15 -3 3 3 12 14 21
18 14 18 15 -3 4 -13 -6 -23 -15 -23 -21 0 -6 -4 -7 -10 -4 -5 3 -10 3 -10 -2
0 -15 -130 -6 -169 11 -21 10 -45 31 -55 50 -9 18 -29 40 -44 48 -15 9 -38 26
-51 37 -13 12 -41 26 -62 33 -51 15 -136 92 -158 142 -35 80 -41 97 -41 123
l0 25 20 -23 20 -24 -12 30 c-6 17 -16 35 -20 41 -12 17 -22 193 -14 247 5 31
12 47 22 47 8 0 14 -4 14 -10 0 -5 5 -10 11 -10 7 0 10 12 7 29 -2 17 -1 28 4
25 4 -3 8 9 8 26 0 16 9 49 19 73 11 23 22 52 26 65 6 22 7 22 21 5 13 -16 14
-14 14 22 -1 22 -1 72 0 110 0 39 -5 72 -10 73 -6 2 -10 10 -10 18 0 20 23 55
30 45 3 -4 21 -14 41 -22z m704 21 c3 -6 -1 -7 -9 -4 -18 7 -21 14 -7 14 6 0
13 -4 16 -10z m-561 -91 c-3 -5 -10 -7 -15 -3 -5 3 -7 10 -3 15 3 5 10 7 15 3
5 -3 7 -10 3 -15z m353 -5 c-9 -9 -28 6 -21 18 4 6 10 6 17 -1 6 -6 8 -13 4
-17z m-660 -326 c-3 -7 -5 -2 -5 12 0 14 2 19 5 13 2 -7 2 -19 0 -25z m-70
-90 c-3 -8 -6 -5 -6 6 -1 11 2 17 5 13 3 -3 4 -12 1 -19z m1070 -395 c-3 -10
-5 -4 -5 12 0 17 2 24 5 18 2 -7 2 -21 0 -30z m-957 -113 c0 -5 -5 -10 -11
-10 -5 0 -7 5 -4 10 3 6 8 10 11 10 2 0 4 -4 4 -10z m235 -140 c3 -6 -1 -7 -9
-4 -18 7 -21 14 -7 14 6 0 13 -4 16 -10z m349 -98 c3 -5 -1 -9 -9 -9 -8 0 -12
4 -9 9 3 4 7 8 9 8 2 0 6 -4 9 -8z"/>
<path d="M1397 1679 c-87 -57 -190 -198 -224 -306 -15 -49 -19 -53 -48 -53
-29 0 -33 4 -48 53 -19 61 -75 157 -131 223 -40 48 -111 104 -131 104 -8 0
-14 -44 -19 -147 -3 -82 -10 -164 -14 -183 l-8 -35 -18 45 -19 45 -13 -40 c-7
-22 -13 -80 -13 -129 l-1 -90 -28 27 c-15 15 -31 27 -35 27 -13 0 -7 -115 8
-175 9 -33 29 -84 45 -113 l29 -54 -35 7 -36 6 28 -52 c30 -55 101 -115 164
-139 19 -8 49 -24 66 -37 33 -24 60 -31 48 -11 -4 6 -3 8 3 5 6 -4 13 -20 17
-37 3 -17 19 -45 35 -61 27 -27 35 -29 106 -29 71 0 79 2 106 29 16 16 32 43
35 60 4 20 11 28 20 24 8 -3 30 7 49 21 19 15 50 32 68 38 54 19 113 65 146
114 40 61 40 75 0 67 l-31 -6 31 54 c16 30 37 81 46 114 15 60 21 175 8 175
-4 0 -20 -12 -35 -27 l-28 -27 0 83 c0 45 -5 103 -12 128 l-11 46 -22 -44 -23
-43 -7 54 c-4 30 -11 115 -14 188 l-6 133 -48 -32z m-466 -146 c22 -30 54 -84
71 -119 26 -56 29 -72 24 -114 l-7 -49 38 15 c38 16 117 13 153 -6 14 -8 16
-1 16 53 0 70 25 129 96 225 40 54 66 67 31 15 -39 -57 -67 -129 -71 -181 -4
-42 -8 -52 -19 -47 -12 4 -14 0 -8 -17 4 -13 10 -64 12 -115 4 -84 3 -93 -17
-113 -26 -26 -36 -21 -20 10 6 11 9 26 7 33 -2 7 -11 -2 -20 -19 -24 -47 -72
-83 -99 -77 -30 7 -66 40 -86 78 -8 17 -17 25 -19 18 -2 -7 1 -22 7 -33 17
-31 2 -39 -21 -11 -15 18 -19 39 -19 95 0 39 4 88 9 109 7 29 6 40 -4 43 -8 4
-14 21 -13 44 0 28 -14 66 -50 134 -56 106 -53 114 9 29z m-60 -362 c50 -28
54 -41 12 -41 -29 0 -76 46 -104 103 l-21 42 32 -38 c18 -21 54 -50 81 -66z
m594 52 c-32 -57 -72 -93 -102 -93 -35 0 -27 16 22 44 24 15 57 42 72 61 16
19 30 35 31 35 2 0 -8 -21 -23 -47z m-700 -171 c-8 -2 -27 9 -42 23 l-28 27
42 -23 c25 -14 37 -25 28 -27z m766 24 c-22 -23 -61 -41 -61 -28 1 8 61 50 74
51 5 1 -1 -10 -13 -23z m-558 -26 c18 -15 26 -17 30 -8 5 17 77 -55 77 -77 0
-12 -5 -15 -17 -11 -16 6 -16 6 0 -12 9 -10 17 -24 17 -30 0 -17 -71 28 -133
84 -41 38 -53 54 -44 63 17 17 41 13 70 -9z m376 11 c10 -7 2 -20 -35 -56 -83
-79 -190 -132 -127 -63 16 18 16 18 0 12 -12 -4 -17 -1 -17 11 0 22 72 94 77
77 4 -9 12 -7 30 8 28 21 50 25 72 11z m-473 -128 c16 -32 27 -61 26 -66 -1
-4 1 -6 5 -5 12 3 83 -43 83 -53 0 -10 -44 5 -85 31 -33 20 -75 93 -75 129 0
36 17 23 46 -36z m544 45 c0 -7 -5 -30 -10 -50 -12 -42 -85 -113 -125 -120
-34 -7 -31 8 4 27 35 18 74 66 96 118 15 36 35 50 35 25z m-544 -188 c40 -28
44 -29 53 -13 10 17 12 17 22 0 9 -15 13 -16 27 -5 9 7 13 9 10 3 -2 -5 -8
-18 -12 -29 -6 -18 -7 -18 -26 -1 -19 18 -20 17 -20 -3 0 -27 -5 -27 -37 -2
-27 21 -48 27 -38 10 3 -5 2 -10 -3 -10 -12 0 -102 79 -102 90 0 16 83 -11
126 -40z m581 -6 c-45 -40 -77 -58 -62 -34 10 17 -11 11 -38 -10 -14 -11 -28
-20 -31 -20 -3 0 -6 9 -6 20 0 25 -15 26 -25 3 -6 -17 -7 -17 -21 1 -18 25
-18 42 0 27 11 -10 17 -8 26 6 10 17 11 17 22 1 11 -15 16 -14 54 13 40 27
112 51 124 41 3 -2 -17 -24 -43 -48z m-294 -36 c15 -11 9 -13 -37 -13 -42 0
-52 3 -44 13 6 6 23 12 37 12 15 0 35 -6 44 -12z m14 -40 c16 -13 17 -54 2
-64 -15 -9 -93 -9 -108 0 -6 4 -11 18 -11 31 0 45 77 66 117 33z m-126 -60
c10 -13 18 -32 19 -43 0 -12 6 -27 13 -34 10 -11 9 -13 -3 -9 -20 6 -60 66
-60 89 0 25 8 24 31 -3z m179 3 c0 -23 -40 -83 -60 -89 -13 -4 -13 -3 -2 11 8
9 12 24 10 34 -3 17 28 60 45 62 4 1 7 -7 7 -18z"/>
<path d="M1567 793 c-4 -3 -7 -11 -7 -17 0 -6 5 -5 12 2 6 6 9 14 7 17 -3 3
-9 2 -12 -2z"/>
</g>
</svg>
